<svg xmlns="http://www.w3.org/2000/svg" width="278.044" height="154.422" viewBox="0 0 278.044 154.422">
  <path id="Path_15" data-name="Path 15" d="M100.241,202.955c.6,9.37-4.287,13.257-12.26,13.257s-12.46-3.09-12.26-13.257a34.282,34.282,0,0,1,.6-6.08H81.7a35.454,35.454,0,0,0-.6,7.377c.1,6.877,1.894,11.262,6.877,11.262s7.475-4.286,6.877-11.262c-.9-9.968-20.034-32.1-20.034-45.951,0-10.166,3.988-13.256,11.961-13.256s12.061,3.488,11.961,13.256a30.3,30.3,0,0,1-.5,6.081H92.865a58.815,58.815,0,0,0,.5-7.375c0-6.977-1.595-11.264-6.578-11.264s-6.579,4.585-6.579,11.264c0,14.254,19.238,33.789,20.036,45.949M135.324,158.3c0-9.968-5.284-13.357-13.257-13.357-7.875,0-13.257,3.389-13.257,13.357v44.653c0,9.969,5.382,13.358,13.257,13.358,7.973,0,13.257-3.389,13.257-13.358V158.3m-5.383,45.95c0,7.176-2.89,11.264-7.874,11.264s-7.875-4.088-7.875-11.264V157c0-7.177,2.89-11.264,7.875-11.264s7.874,4.086,7.874,11.264Zm38.47-58.508v58.509c0,7.176-2.89,11.262-7.874,11.262s-7.875-4.086-7.875-11.262V145.743h-5.381v57.212c0,9.968,5.381,13.257,13.256,13.257,7.975,0,13.258-3.289,13.258-13.257V145.743Zm39.668,0v53.923L189.14,145.743h-5.383l3.289,9.769v60h1V158.4l20.034,57.112h1V145.743Zm41.36,15.848c0-9.969-4.784-15.85-16.544-15.85H222.527v69.773h10.367c11.76,0,16.544-5.981,16.544-15.949V161.591m-5.382,39.271c0,7.375-3.09,13.656-11.163,13.656h-4.985V146.738h4.985c8.073,0,11.163,6.181,11.163,13.556ZM100.241,286.009c-.8-12.159-20.036-31.7-20.036-45.949,0-6.679,1.6-11.264,6.579-11.264s6.578,4.287,6.578,11.264a58.816,58.816,0,0,1-.5,7.375h5.383a30.3,30.3,0,0,0,.5-6.081c.1-9.767-3.987-13.256-11.961-13.256s-11.961,3.09-11.961,13.256c0,13.856,19.137,35.983,20.034,45.951.6,6.977-1.894,11.262-6.877,11.262S81.2,294.183,81.1,287.306a35.454,35.454,0,0,1,.6-7.377H76.319a34.282,34.282,0,0,0-.6,6.08c-.2,10.167,4.286,13.257,12.26,13.257s12.858-3.887,12.26-13.257m35.082-44.654c0-9.968-5.284-13.357-13.257-13.357-7.875,0-13.257,3.389-13.257,13.357v44.653c0,9.969,5.382,13.358,13.257,13.358,7.973,0,13.257-3.389,13.257-13.358V241.355m-5.383,45.95c0,7.176-2.89,11.264-7.874,11.264s-7.875-4.088-7.875-11.264V240.06c0-7.177,2.89-11.264,7.875-11.264s7.874,4.086,7.874,11.264Zm23.719,10.267V228.8h-5.382v69.773H165.92v-1ZM193.527,228.8v58.509c0,7.176-2.89,11.262-7.875,11.262s-7.874-4.086-7.874-11.262V228.8H172.4v57.212c0,9.968,5.382,13.257,13.256,13.257,7.975,0,13.257-3.289,13.257-13.257V228.8Zm36.8,0H204.116v1h10.466v68.776h5.382V229.793h10.367Zm13.354,0H238.3v69.771h5.382Zm39.469,12.558c0-9.968-5.284-13.357-13.257-13.357-7.875,0-13.257,3.389-13.257,13.357v44.653c0,9.969,5.382,13.358,13.257,13.358,7.973,0,13.257-3.389,13.257-13.358V241.355m-5.383,45.95c0,7.176-2.89,11.264-7.874,11.264s-7.875-4.088-7.875-11.264V240.06c0-7.177,2.89-11.264,7.875-11.264s7.874,4.086,7.874,11.264Zm38.67-58.508V282.72L297.5,228.8H292.12l3.289,9.769v60h1V241.456l20.034,57.112h1V228.8Zm36.378,57.212c-.8-12.159-20.036-31.7-20.036-45.949,0-6.679,1.6-11.264,6.579-11.264s6.578,4.287,6.578,11.264a58.813,58.813,0,0,1-.5,7.375h5.383a30.3,30.3,0,0,0,.5-6.081c.1-9.767-3.987-13.256-11.961-13.256s-11.961,3.09-11.961,13.256c0,13.856,19.137,35.983,20.034,45.951.6,6.977-1.894,11.262-6.877,11.262s-6.777-4.385-6.877-11.262a35.455,35.455,0,0,1,.6-7.377H328.9a34.285,34.285,0,0,0-.6,6.08c-.2,10.167,4.286,13.257,12.26,13.257s12.858-3.887,12.26-13.257m-1.179-70.84H261.957v.692h89.682Zm0-8.89H261.957v.692h89.682Zm0-8.888H261.957v.692h89.682Zm0-8.888H261.957v.692h89.682Z" transform="translate(-74.824 -144.944)" fill="#c7b15a"/>
</svg>
